<svg width="867" height="984" viewBox="0 0 867 984" fill="none" xmlns="http://www.w3.org/2000/svg">
<path opacity="0.1" d="M56.7451 386.068H132.098V543.714H62.2548C62.0766 545.343 61.8984 546.962 61.6979 548.591H132.098V675.706C131.98 675.706 131.861 675.569 131.749 675.501C129.769 674.293 127.789 673.013 125.809 671.66C125.386 671.364 124.97 671.056 124.539 670.772C122.559 669.336 120.579 667.816 118.599 666.213C117.908 665.655 117.218 665.073 116.542 664.481C105.549 655.067 95.5581 643.13 86.9146 629.084C86.6547 628.708 86.4171 628.297 86.1721 627.944C84.9692 625.938 83.7885 623.91 82.645 621.836C82.2143 621.072 81.7985 620.297 81.3753 619.556C80.0238 617.026 78.717 614.405 77.4546 611.773C77.2616 611.374 77.0834 610.986 76.8977 610.633C71.7267 599.651 67.4384 587.75 64.126 575.19C64.022 574.814 63.9255 574.404 63.829 574.051C62.8043 570.062 61.8761 566.016 61.0742 561.891C60.7326 560.17 60.3984 558.472 60.1163 556.683C60.0123 556.17 59.9306 555.646 59.8415 555.133C55.6684 529.89 55.1858 503.656 55.1858 477.546C55.1858 474.507 55.1858 471.468 55.1858 468.429C55.2452 457.77 55.3269 447.122 55.4308 436.485C55.4704 433.75 55.5076 431.004 55.5422 428.246C55.6462 421.264 55.7947 414.266 55.9877 407.254C56.0323 405.316 56.0917 403.368 56.1585 401.442C56.1882 400.325 56.2254 399.208 56.2699 398.091C56.4036 394.057 56.562 390.049 56.7451 386.068Z" fill="#56BC82"/>
<path opacity="0.1" d="M132.098 210.542H90.761C97.4836 194.41 104.825 178.906 112.748 164.113C118.896 152.534 125.371 141.252 132.098 130.38V210.542Z" fill="#56BC82"/>
<path opacity="0.1" d="M132.098 215.396V381.19H56.9828C56.9828 380.712 57.0273 380.222 57.057 379.743C57.1239 378.432 57.1907 377.133 57.265 375.823C57.3392 374.296 57.4357 372.768 57.5323 371.264C57.6288 369.76 57.7253 367.936 57.8441 366.284C57.9629 364.631 58.0595 362.956 58.1783 361.304C58.2971 359.651 58.4159 357.999 58.5496 356.358C58.6832 354.717 58.802 353.053 58.9505 351.412C59.0619 350.056 59.1733 348.688 59.2995 347.32C59.4703 345.394 59.6485 343.468 59.8341 341.554C59.8341 341.258 59.8936 340.973 59.9233 340.688C61.2803 326.673 63.1245 312.781 65.4478 299.068C67.8875 284.686 71.002 270.594 74.7667 256.902C78.767 242.556 83.4529 228.683 88.7859 215.396H132.098Z" fill="#56BC82"/>
<path opacity="0.1" d="M150.098 386.067V543.713H311.051V386.067H150.098ZM150.098 548.591V683.979C151.018 684.264 151.924 684.549 152.838 684.788C154.063 685.153 155.295 685.483 156.55 685.768L157.293 685.928C157.783 686.053 158.28 686.156 158.778 686.247C160.018 686.52 161.258 686.726 162.491 686.908C163.07 686.999 163.671 687.068 164.258 687.147L165.691 687.307C166.471 687.398 167.243 687.466 168.015 687.512C168.49 687.512 168.966 687.569 169.448 687.592C169.931 687.615 170.191 687.592 170.577 687.592H171.98C172.619 687.592 173.257 687.592 173.889 687.592H174.705C175.344 687.592 175.983 687.592 176.614 687.501H176.651C177.096 687.501 177.534 687.501 177.98 687.421C178.106 687.432 178.233 687.432 178.359 687.421C178.73 687.421 179.101 687.421 179.458 687.352C179.542 687.342 179.626 687.342 179.71 687.352C180.534 687.273 181.366 687.17 182.205 687.056C183.044 686.942 183.839 686.805 184.678 686.669L186.363 686.35C193.251 684.87 200.062 682.646 206.746 679.694C221.768 673.267 236.448 664.275 251.462 657.699C270.857 649.209 292.302 645.026 311.044 655.363V548.591H150.098ZM311.051 210.541V0.665786C293.431 0.36826 275.859 3.52785 258.761 10.0678C218.003 25.7833 181.403 59.8698 150.098 103.404V210.529H158.199V215.396H150.098V381.19H311.051V215.396H191.338V210.518L311.051 210.541ZM517.834 139.644C507.75 139.097 497.726 134.208 488.652 126.63C471.321 112.168 457.466 89.808 441.991 70.9584C409.839 31.6752 369.964 7.95945 329.058 2.07893V210.541H558.808L559.379 209.618L517.834 139.644ZM538.767 133.946L560.961 171.337V124.111C553.491 125.558 546.986 128.92 538.767 133.9V133.946ZM560.961 717.598V548.591H513.631C513.513 547.873 513.379 547.143 513.23 546.414C513.372 547.143 513.498 547.873 513.624 548.591H329.058V670.805C330.81 672.799 332.54 674.908 334.255 677.027C336.107 679.352 337.946 681.704 339.773 684.082L341.614 686.418C342.498 687.558 343.396 688.697 344.287 689.78C346.074 691.991 347.874 694.179 349.685 696.344C350.591 697.438 351.502 698.513 352.418 699.569C366.921 716.581 382.219 731.935 398.188 745.508C401.767 748.574 405.384 751.525 409.022 754.408C411.443 756.323 413.881 758.2 416.336 760.038C420.019 762.796 423.732 765.455 427.474 768.016C461.977 791.786 498.462 808.094 535.885 816.473C544.192 818.35 552.536 819.831 560.917 820.918V717.576H561.659L560.961 717.598ZM329.058 215.396V381.19H560.961V215.396H329.058ZM329.058 386.045V543.713H560.961V386.067L329.058 386.045ZM578.96 123.883V176.648L607.281 128.932C597.895 126.554 588.455 124.871 578.96 123.883ZM578.96 386.067V543.713H804.508V386.067H578.96ZM803.713 730.1L804.508 548.591H578.96V822.752C593.488 823.68 608.038 823.409 622.548 821.943H622.8C629.73 821.259 636.629 820.287 643.495 819.026H643.651C680.292 812.48 716.118 797.792 750.005 775.423L803.713 730.1ZM848.021 411.96C847.164 408.921 846.285 405.882 845.384 402.843C843.706 397.145 841.939 391.606 840.112 386.079H822.514V543.713H867C866.963 499.062 859.597 453.477 848.021 411.96ZM822.514 548.591V704.72C835.041 686.293 845.637 665.198 853.255 641.083C862.426 612.034 866.621 580.603 866.97 548.579L822.514 548.591ZM822.514 340.129V381.156H838.464C833.629 367.052 828.305 353.357 822.514 340.129ZM669.55 154.824C668.377 154.129 667.197 153.434 666.016 152.773C653.568 145.712 640.846 139.843 627.924 135.2L584.574 208.205L583.727 209.606L584.284 210.529H738.57C717.081 187.835 693.912 169.136 669.55 154.824ZM743.099 215.396H582.123L578.96 219.829V381.19H606.694H804.508V303.011C786.621 269.813 765.975 240.357 743.099 215.396Z" fill="#56BC82"/>
<path opacity="0.1" d="M132.098 299.034V381.19H56.9828C56.9828 380.712 57.0273 380.222 57.057 379.743C57.1239 378.433 57.1907 377.133 57.265 375.823C57.3392 374.296 57.4357 372.769 57.5323 371.264C57.6288 369.76 57.7253 367.937 57.8441 366.284C57.9629 364.632 58.0595 362.956 58.1783 361.304C58.2971 359.651 58.4159 357.999 58.5496 356.358C58.6832 354.717 58.802 353.053 58.9505 351.412C59.0619 350.056 59.1733 348.688 59.2995 347.321C59.4703 345.395 59.6485 343.469 59.8341 341.554C59.8341 341.258 59.8936 340.973 59.9233 340.688C61.2803 326.674 63.1245 312.781 65.4478 299.068L132.098 299.034Z" fill="#56BC82"/>
<path opacity="0.1" d="M56.7451 386.068H132.098V543.714H62.2548C62.0766 545.343 61.8984 546.962 61.6979 548.591H132.098V675.706C131.98 675.706 131.861 675.569 131.749 675.501C129.769 674.293 127.789 673.013 125.809 671.66C125.386 671.364 124.97 671.056 124.539 670.772C122.559 669.336 120.579 667.816 118.599 666.213C117.908 665.655 117.218 665.073 116.542 664.481C105.549 655.067 95.5581 643.13 86.9146 629.084C86.6547 628.708 86.4171 628.297 86.1721 627.944C84.9692 625.938 83.7885 623.91 82.645 621.836C82.2143 621.072 81.7985 620.297 81.3753 619.556C80.0238 617.026 78.717 614.405 77.4546 611.773C77.2616 611.374 77.0834 610.986 76.8977 610.633C71.7267 599.651 67.4384 587.75 64.126 575.19C64.022 574.814 63.9255 574.404 63.829 574.051C62.8043 570.062 61.8761 566.016 61.0742 561.891C60.7326 560.17 60.3984 558.472 60.1163 556.683C60.0123 556.17 59.9306 555.646 59.8415 555.133C55.6684 529.89 55.1858 503.656 55.1858 477.546C55.1858 474.507 55.1858 471.468 55.1858 468.429C55.2452 457.77 55.3269 447.122 55.4308 436.485C55.4704 433.75 55.5076 431.004 55.5422 428.246C55.6462 421.264 55.7947 414.266 55.9877 407.254C56.0323 405.316 56.0917 403.368 56.1585 401.442C56.1882 400.325 56.2254 399.208 56.2699 398.091C56.4036 394.057 56.562 390.049 56.7451 386.068Z" fill="#56BC82"/>
<path opacity="0.1" d="M206.754 239.146V381.19H150.09V239.146H158.169V191.054H191.331V239.146H206.754Z" fill="#56BC82"/>
<path opacity="0.1" d="M206.746 386.057H150.09V543.702H206.746V386.057Z" fill="#56BC82"/>
<path opacity="0.1" d="M150.098 548.591H206.754V679.649C200.07 682.602 193.259 684.823 186.371 686.293C185.806 686.419 185.249 686.521 184.685 686.613C183.854 686.761 183.029 686.897 182.205 687.011L179.718 687.319H179.465L178.366 687.41H177.987C177.542 687.41 177.104 687.49 176.658 687.501H176.621C175.983 687.501 175.351 687.57 174.713 687.593H173.896C173.265 687.593 172.634 687.593 171.988 687.593H170.592H169.456C168.973 687.593 168.498 687.593 168.015 687.501C167.253 687.456 166.48 687.388 165.698 687.296L164.265 687.137C163.671 687.068 163.077 686.977 162.491 686.886C161.243 686.719 160.006 686.502 158.778 686.236L157.293 685.917L156.55 685.758C155.31 685.473 154.078 685.154 152.838 684.789C151.917 684.538 151.011 684.254 150.098 683.957V548.591Z" fill="#56BC82"/>
<path opacity="0.1" d="M560.954 222.371H514.233V381.179H560.954V222.371Z" fill="#56BC82"/>
<path opacity="0.1" d="M560.961 386.057V543.714H329.058V475.712H452.58V515.827H514.233V386.057H560.961Z" fill="#56BC82"/>
<path opacity="0.1" d="M561.696 717.633C561.451 717.633 561.206 717.633 560.954 717.565V820.987C552.583 819.931 544.242 818.453 535.93 816.554C498.494 808.178 461.994 791.878 427.474 768.119C417.509 761.221 407.747 753.703 398.188 745.566C382.225 731.986 366.929 716.633 352.426 699.627C348.772 695.342 345.173 690.962 341.629 686.487C339.171 683.365 336.736 680.174 334.256 677.085C332.548 674.954 330.818 672.846 329.058 670.84V548.591H513.624C513.49 547.862 513.372 547.144 513.238 546.415C513.379 547.144 513.513 547.862 513.632 548.591H560.961V717.554C561.206 717.565 561.451 717.599 561.696 717.633Z" fill="#56BC82"/>
<path opacity="0.1" d="M682.812 210.542H652.368V196.023H666.009V152.774C667.192 153.442 668.37 154.126 669.543 154.825V196.023H682.805L682.812 210.542Z" fill="#56BC82"/>
<path opacity="0.1" d="M756.168 381.19H606.694C606.709 381.196 606.724 381.196 606.739 381.19H606.672H578.96V222.382H586.817V339.765H622.711V270.247H652.376V215.396H682.82V270.281H712.47V339.799H756.176L756.168 381.19Z" fill="#56BC82"/>
<path opacity="0.1" d="M578.96 386.068V543.714H756.176V386.068H578.96ZM804.255 729.269L804.508 604.479H756.176V548.637H578.96V822.753C593.489 823.68 608.038 823.41 622.548 821.944H622.8C629.731 821.26 636.629 820.288 643.495 819.026H643.651C680.292 812.48 716.118 797.793 750.005 775.424" fill="#56BC82"/>
<path opacity="0.1" d="M825.633 548.591H866.97C866.614 580.604 862.426 612.046 853.256 641.084C845.637 665.21 835.041 686.305 822.514 704.733V604.445H825.633V548.591Z" fill="#56BC82"/>
<path opacity="0.1" d="M867 543.714H825.633V411.961H848.021C859.597 453.477 866.963 499.063 867 543.714Z" fill="#56BC82"/>
<path opacity="0.1" d="M560.961 266.52H535.93V316.311H560.961V266.52Z" fill="#56BC82"/>
<path opacity="0.1" d="M560.961 369.726H535.93V381.19H560.961V369.726Z" fill="#56BC82"/>
<path opacity="0.1" d="M560.961 386.057H535.93V419.505H560.961V386.057Z" fill="#56BC82"/>
<path opacity="0.1" d="M560.961 472.931H535.93V522.722H560.961V472.931Z" fill="#56BC82"/>
<path opacity="0.1" d="M560.961 576.136H535.93V625.927H560.961V576.136Z" fill="#56BC82"/>
<path opacity="0.1" d="M560.961 717.553C561.206 717.553 561.451 717.553 561.704 717.633C561.459 717.633 561.214 717.633 560.961 717.565V729.132H535.93V679.342H560.961V717.553Z" fill="#56BC82"/>
<path opacity="0.1" d="M560.961 782.535V820.987C552.585 819.931 544.241 818.453 535.93 816.554V782.535H560.961Z" fill="#56BC82"/>
<path opacity="0.1" d="M436.333 540.055H329.058V543.714H436.333V540.055Z" fill="#56BC82"/>
<path opacity="0.1" d="M436.333 548.58H329.058V562.597H436.333V548.58Z" fill="#56BC82"/>
<path opacity="0.1" d="M436.333 608.547H329.058V631.089H436.333V608.547Z" fill="#56BC82"/>
<path opacity="0.1" d="M436.333 677.039V699.581H352.426C348.772 695.312 345.173 690.928 341.629 686.43C339.164 683.319 336.728 680.128 334.255 677.039H436.333Z" fill="#56BC82"/>
<path opacity="0.1" d="M436.333 745.52V768.119H427.474C417.509 761.22 407.747 753.703 398.188 745.566L436.333 745.52Z" fill="#56BC82"/>
<path opacity="0.1" d="M643.666 401.339H622.548V433.75H643.666V401.339Z" fill="#56BC82"/>
<path opacity="0.1" d="M186.423 250.326H165.305V282.737H186.423V250.326Z" fill="#56BC82"/>
<path opacity="0.1" d="M186.423 325.61H165.305V358.022H186.423V325.61Z" fill="#56BC82"/>
<path opacity="0.1" d="M186.423 400.895H165.305V433.306H186.423V400.895Z" fill="#56BC82"/>
<path opacity="0.1" d="M186.423 476.168H165.305V508.579H186.423V476.168Z" fill="#56BC82"/>
<path opacity="0.1" d="M186.423 551.452H165.305V583.863H186.423V551.452Z" fill="#56BC82"/>
<path opacity="0.1" d="M186.423 626.736H165.305V659.147H186.423V626.736Z" fill="#56BC82"/>
<path opacity="0.1" d="M724.284 401.339H703.166V433.75H724.284V401.339Z" fill="#56BC82"/>
<path opacity="0.1" d="M643.666 481.284H622.548V513.696H643.666V481.284Z" fill="#56BC82"/>
<path opacity="0.1" d="M724.284 481.284H703.166V513.696H724.284V481.284Z" fill="#56BC82"/>
<path opacity="0.1" d="M643.666 561.219H622.548V593.63H643.666V561.219Z" fill="#56BC82"/>
<path opacity="0.1" d="M724.284 561.219H703.166V593.63H724.284V561.219Z" fill="#56BC82"/>
<path opacity="0.1" d="M643.666 641.164H622.548V673.575H643.666V641.164Z" fill="#56BC82"/>
<path opacity="0.1" d="M724.284 641.164H703.166V673.575H724.284V641.164Z" fill="#56BC82"/>
<path opacity="0.1" d="M643.666 721.109H622.548V753.52H643.666V721.109Z" fill="#56BC82"/>
<path opacity="0.1" d="M724.284 721.109H703.166V753.52H724.284V721.109Z" fill="#56BC82"/>
<path opacity="0.1" d="M622.548 821.944V801.043H643.658V818.97L622.548 821.944Z" fill="#56BC82"/>
<path opacity="0.1" d="M59.8341 340.654V359.195H132.098V340.654H59.8341ZM67.0293 358.033H61.089V341.827H67.0293V358.033ZM74.2246 358.033H68.2842V341.827H74.2246V358.033ZM81.405 358.033H75.4646V341.827H81.405V358.033ZM88.6002 358.033H82.6599V341.827H88.6002V358.033ZM95.788 358.033H89.8477V341.827H95.788V358.033ZM102.983 358.033H97.0429V341.827H102.983V358.033ZM110.179 358.033H104.238V341.827H110.179V358.033ZM117.366 358.033H111.426V341.827H117.366V358.033ZM124.554 358.033H118.614V341.827H124.554V358.033ZM131.749 358.033H125.809V341.827H131.749V358.033Z" fill="#56BC82"/>
<path opacity="0.1" d="M59.8341 394.627V413.169H132.098V394.627H59.8341ZM67.0293 412.006H61.089V395.801H67.0293V412.006ZM74.2246 412.006H68.2842V395.801H74.2246V412.006ZM81.405 412.006H75.4646V395.801H81.405V412.006ZM88.6002 412.006H82.6599V395.801H88.6002V412.006ZM95.788 412.006H89.8477V395.801H95.788V412.006ZM102.983 412.006H97.0429V395.801H102.983V412.006ZM110.179 412.006H104.238V395.801H110.179V412.006ZM117.366 412.006H111.426V395.801H117.366V412.006ZM124.554 412.006H118.614V395.801H124.554V412.006ZM131.749 412.006H125.809V395.801H131.749V412.006Z" fill="#56BC82"/>
<path opacity="0.1" d="M59.8341 448.611V467.142H132.098V448.611H59.8341ZM67.0293 465.968H61.089V449.762H67.0293V465.968ZM74.2246 465.968H68.2842V449.762H74.2246V465.968ZM81.405 465.968H75.4646V449.762H81.405V465.968ZM88.6002 465.968H82.6599V449.762H88.6002V465.968ZM95.788 465.968H89.8477V449.762H95.788V465.968ZM102.983 465.968H97.0429V449.762H102.983V465.968ZM110.179 465.968H104.238V449.762H110.179V465.968ZM117.366 465.968H111.426V449.762H117.366V465.968ZM124.554 465.968H118.614V449.762H124.554V465.968ZM131.749 465.968H125.809V449.762H131.749V465.968Z" fill="#56BC82"/>
<path opacity="0.1" d="M59.8341 502.584V521.115H132.098V502.584H59.8341ZM67.0293 519.952H61.089V503.724H67.0293V519.952ZM74.2246 519.952H68.2842V503.724H74.2246V519.952ZM81.405 519.952H75.4646V503.724H81.405V519.952ZM88.6002 519.952H82.6599V503.724H88.6002V519.952ZM95.788 519.952H89.8477V503.724H95.788V519.952ZM102.983 519.952H97.0429V503.724H102.983V519.952ZM110.179 519.952H104.238V503.724H110.179V519.952ZM117.366 519.952H111.426V503.724H117.366V519.952ZM124.554 519.952H118.614V503.724H124.554V519.952ZM131.749 519.952H125.809V503.724H131.749V519.952Z" fill="#56BC82"/>
<path opacity="0.1" d="M60.1831 556.535C60.4653 558.29 60.7994 560.022 61.141 561.743V557.708H67.0813V573.903H63.8958C63.9849 574.29 64.0815 574.689 64.1854 575.042H132.128V556.535H60.1831ZM74.2914 573.903H68.3511V557.708H74.2914V573.903ZM81.4718 573.903H75.5315V557.708H81.4718V573.903ZM88.667 573.903H82.7267V557.708H88.667V573.903ZM95.8548 573.903H89.9145V557.708H95.8548V573.903ZM103.05 573.903H97.1097V557.708H103.05V573.903ZM110.245 573.903H104.305V557.708H110.245V573.903ZM117.433 573.903H111.493V557.708H117.433V573.903ZM124.621 573.903H118.681V557.708H124.621V573.903ZM131.816 573.903H125.876V557.708H131.816V573.903Z" fill="#56BC82"/>
<path opacity="0.1" d="M76.92 610.508C77.1131 610.872 77.2913 611.283 77.477 611.647H81.405V619.431L82.6747 621.71V611.602H88.6151V627.944H86.1721C86.4097 628.32 86.6399 628.719 86.9147 629.084H132.083V610.508H76.92ZM95.8252 627.944H89.8848V611.67H95.8252V627.944ZM103.02 627.944H97.0801V611.67H103.02V627.944ZM110.216 627.944H104.275V611.67H110.216V627.944ZM117.403 627.944H111.463V611.67H117.403V627.944ZM124.591 627.944H118.651V611.67H124.591V627.944ZM131.786 627.944H125.846V611.67H131.786V627.944Z" fill="#56BC82"/>
<path opacity="0.1" d="M116.564 664.481C117.247 665.073 117.938 665.62 118.629 666.202V665.632H124.569V670.771C125 671.056 125.408 671.364 125.831 671.66V665.632H131.772V675.501C131.885 675.579 132.001 675.644 132.121 675.695V664.481H116.564Z" fill="#56BC82"/>
<path opacity="0.1" d="M560.954 717.553H561.696H560.954ZM513.231 546.415C513.372 547.144 513.498 547.873 513.624 548.591C513.513 547.873 513.379 547.144 513.231 546.415ZM158.199 210.542V215.396H191.368V210.519L158.199 210.542ZM560.961 717.553H561.704H560.961ZM513.231 546.415C513.372 547.144 513.498 547.873 513.624 548.591C513.513 547.873 513.379 547.144 513.231 546.415ZM560.954 717.553H561.696H560.954ZM513.231 546.415C513.372 547.144 513.498 547.873 513.624 548.591C513.513 547.873 513.379 547.144 513.231 546.415Z" fill="#56BC82"/>
<path opacity="0.1" d="M653.014 984C692.974 984 725.367 976.015 725.367 966.165C725.367 956.314 692.974 948.329 653.014 948.329C613.054 948.329 580.661 956.314 580.661 966.165C580.661 976.015 613.054 984 653.014 984Z" fill="#56BC82"/>
<path opacity="0.1" d="M326.697 966.165C366.656 966.165 399.05 958.179 399.05 948.329C399.05 938.479 366.656 930.494 326.697 930.494C286.737 930.494 254.343 938.479 254.343 948.329C254.343 958.179 286.737 966.165 326.697 966.165Z" fill="#56BC82"/>
<path d="M409.995 476.726C409.977 476.613 409.938 476.51 409.883 476.43C408.777 474.754 394.669 444.132 394.669 444.132C394.669 444.132 393.926 440.714 392.723 436.269C393.109 435.503 393.398 434.633 393.577 433.705C393.642 433.311 393.689 432.912 393.718 432.508C393.718 432.383 393.778 432.28 393.8 432.155C394.058 430.609 394.032 428.984 393.726 427.46C393.643 427.851 393.541 428.232 393.421 428.599C393.142 427.272 392.768 425.995 392.307 424.793C390.436 419.847 387.763 415.676 385.795 410.855C382.816 403.365 381.631 394.515 382.446 385.829C382.446 386.273 382.446 386.729 382.446 387.174C382.521 385.451 382.67 383.738 382.892 382.045C383.202 380.119 383.617 378.236 384.132 376.415C385.899 370.204 388.758 364.791 390.496 358.557C391.079 356.455 391.522 354.267 391.817 352.027C392.43 348.287 392.653 344.421 392.478 340.574C392.478 341.486 392.382 342.397 392.293 343.298C392.105 334.047 389.671 325.239 385.469 318.602C379.402 309.245 370.692 305.61 362.361 303.695C358.86 303.068 355.516 301.11 352.633 297.997C349.433 294.818 345.297 294.054 341.555 294.749C337.253 295.463 333.256 298.496 330.275 303.308C326.318 309.986 324.602 319.445 319.984 325.075C317.184 328.494 313.635 330.089 310.375 332.414C307.116 334.739 304.034 338.112 302.987 343.104C302.987 343.104 302.987 343.035 302.987 343.001V343.286L302.942 343.469C301.858 349.372 303.952 355.378 305.044 361.27C306.18 367.367 306.254 373.806 306.314 380.108C306.395 387.812 306.47 395.527 306.388 403.242C306.351 406.274 306.284 409.339 306.135 412.359C304.378 413.175 302.671 414.227 301.034 415.505C299.371 417.169 293.148 427.482 293.148 427.482L280.978 498.846L281.141 499.131L280.978 500.1L281.594 499.883C283.317 502.732 288.463 510.847 294.017 515.907L294.537 529.901C294.537 529.901 295.161 543.942 303.574 549.742C303.767 554.609 304.368 574.37 301.584 582.199C299.655 587.919 298.748 594.32 298.955 600.752C298.955 600.752 299.928 612.627 298.821 618.873C298.175 623.046 298.127 627.386 298.68 631.591C298.68 631.591 298.68 632.97 298.68 635.34C298.68 647.979 298.777 688.481 298.68 693.063C298.539 698.476 298.68 778.535 298.68 778.535C298.68 778.535 297.99 818.548 295.777 829.386C293.564 840.224 294.121 876.111 294.121 876.111C294.121 876.111 292.732 918.858 297.641 927.292C297.641 927.668 297.596 928.055 297.589 928.431C297.589 928.602 297.589 928.796 297.589 928.967C297.529 932.215 297.938 935.668 299.757 936.728C303.47 938.916 308.378 945.48 309.306 947.361C310.234 949.241 315.632 953.925 322.672 952.671C327.082 951.911 331.519 951.598 335.956 951.737C335.956 951.737 338.733 950.962 337.835 945.663C337.255 942.358 335.087 937.275 333.543 933.936C333.825 934.05 334.1 934.141 334.359 934.221L334.627 934.301H334.835C334.948 934.311 335.062 934.311 335.176 934.301H335.325C335.463 934.318 335.602 934.318 335.741 934.301C337.604 934.027 344.555 938.996 345.795 942.278C347.035 945.56 351.408 948.056 354.705 948.683C356.665 949.047 361.611 948.432 365.762 947.611C367.852 947.28 369.922 946.701 371.954 945.879C372.934 945.309 373.142 943.486 372.86 941.435C372.527 938.829 371.62 936.479 370.291 934.779C369.088 933.469 367.499 930.016 366.326 927.189L366.014 926.426C368.086 923.394 371.828 913.479 372.964 911.428C374.345 908.932 370.737 817.659 370.737 817.659V771.903L376.268 728.597L380.137 705.678L383.456 671.079C383.456 671.079 389.263 630.668 387.473 626.702C387.473 626.622 385.988 585.014 384.429 575.019C383.753 570.563 383.924 560.535 384.325 550.779C384.744 550.141 385.036 549.332 385.168 548.449C385.299 547.565 385.265 546.642 385.068 545.788C384.957 545.203 384.813 544.635 384.637 544.09C384.637 543.919 384.637 543.736 384.637 543.566C387.845 541.3 391.196 539.551 394.639 538.346C400.171 536.682 398.79 532.306 398.79 532.306C398.79 532.306 400.037 528.557 400.862 526.266C401.686 523.975 401.003 503.758 400.862 502.094C400.81 501.422 400.468 497.707 400.074 493.49C401.849 491.553 404.158 489.148 406.676 486.869C411.465 482.515 410.388 477.923 409.995 476.726ZM337.82 765.657C337.82 765.657 333.669 781.909 335.332 786.068C336.995 790.228 335.057 805.67 335.057 805.67L333.669 828.588C333.669 828.588 329.8 871.096 331.181 881.091C332.265 888.932 332.666 912.351 332.793 922.118C332.698 922.175 332.606 922.243 332.518 922.323L332.332 922.471C332.971 918.631 332.704 910.858 329.533 895.222L329.266 830.639C329.266 830.639 328.775 756.039 332.614 747.697C336.453 739.355 337.812 725.189 337.812 725.189C337.812 725.189 336.981 745.623 336.439 751.036C335.896 756.449 337.82 765.657 337.82 765.657ZM330.09 926.186C330.053 926.323 330.008 926.46 329.978 926.585L329.77 926.175C329.877 926.191 329.983 926.195 330.09 926.186Z" fill="url(#paint0_linear)"/>
<path d="M372.422 951.782C370.276 953.047 358.641 955.201 355.388 954.597C352.136 953.993 347.829 951.463 346.604 948.158C345.379 944.854 338.51 939.862 336.669 940.181C335.914 940.216 335.161 940.054 334.441 939.702C333.171 939.112 331.93 938.381 330.728 937.514C330.561 936.078 330.588 934.603 330.81 933.184C330.853 932.898 330.907 932.616 330.973 932.34C331.407 930.471 332.303 928.939 333.468 928.078L333.736 927.884C334.251 927.543 334.788 927.291 335.34 927.132C341.176 925.411 365.257 928.865 365.257 928.865C365.257 928.865 365.932 930.722 366.861 933.024C368.019 935.873 369.593 939.349 370.781 940.66C372.097 942.386 372.99 944.75 373.313 947.361C373.595 949.378 373.387 951.224 372.422 951.782Z" fill="white"/>
<path opacity="0.1" d="M372.422 951.782C370.276 953.047 358.648 955.201 355.396 954.597C352.143 953.993 347.837 951.452 346.604 948.158C345.371 944.865 338.518 939.862 336.676 940.181C334.835 940.5 330.736 937.514 330.736 937.514C330.736 937.514 330.097 932.956 331.954 929.844L335.666 933.89C335.666 933.89 345.602 938.62 347.443 943.007C349.285 947.395 352.641 949.845 357.49 950.29C361.113 950.654 369.437 948.489 373.335 947.406C373.595 949.378 373.395 951.224 372.422 951.782Z" fill="black"/>
<path d="M336.877 957.595C332.497 957.464 328.116 957.78 323.763 958.541C316.791 959.794 311.467 955.122 310.539 953.196C309.611 951.27 304.806 944.762 301.116 942.483C299.312 941.412 298.888 937.924 298.97 934.665C298.97 934.494 298.97 934.3 298.97 934.129C299.038 932.065 299.237 930.015 299.564 928.01L328.456 927.064L330.959 932.272L331.345 933.07L332.867 936.249C332.867 936.249 333.558 937.64 334.463 939.668C335.993 943.087 338.132 948.136 338.703 951.475C339.617 956.82 336.877 957.595 336.877 957.595Z" fill="white"/>
<path opacity="0.1" d="M336.877 957.595C332.497 957.464 328.116 957.78 323.763 958.541C316.798 959.794 311.467 955.122 310.546 953.196C309.625 951.27 304.806 944.705 301.116 942.506C299.312 941.435 298.888 937.947 298.97 934.688C301.034 935.429 305.371 937.321 307.071 940.614C309.299 945.013 313.286 952.409 318.952 952.877C323.526 953.253 334.664 951.999 338.748 951.498C339.624 956.82 336.877 957.595 336.877 957.595Z" fill="black"/>
<path opacity="0.1" d="M333.439 928.032C333.105 931.839 332.072 932.865 331.33 933.092C331.148 933.147 330.962 933.147 330.78 933.092C330.683 933.082 330.586 933.059 330.491 933.024C330.491 933.024 304.546 941.822 299.304 934.699C299.171 934.516 299.047 934.318 298.933 934.107C299.001 932.042 299.2 929.993 299.527 927.987L328.419 927.041L330.921 932.249C331.355 930.38 332.251 928.848 333.416 927.987L333.439 928.032Z" fill="black"/>
<path opacity="0.1" d="M366.853 932.978C366.274 933.958 365.791 934.517 365.487 934.323C364.12 933.48 352.923 930.551 349.366 933.07C345.809 935.588 333.773 933.48 333.773 933.48C333.773 933.48 333.773 931.292 333.706 927.782C334.221 927.44 334.759 927.188 335.31 927.03C341.146 925.309 365.227 928.762 365.227 928.762C365.227 928.762 365.932 930.676 366.853 932.978Z" fill="black"/>
<path d="M383.798 675.193L380.516 709.998L376.699 733.064L371.234 776.666V822.821C371.234 822.821 374.784 914.653 373.417 917.16C372.051 919.668 366.861 933.947 365.494 933.115C364.128 932.283 352.93 929.343 349.374 931.85C345.817 934.357 333.78 932.272 333.78 932.272C333.78 932.272 333.506 896.636 332.139 886.573C330.773 876.51 334.597 833.739 334.597 833.739L335.963 810.684C335.963 810.684 337.879 795.163 336.238 790.969C334.597 786.775 338.696 770.455 338.696 770.455C338.696 770.455 336.788 761.213 337.337 755.765C337.887 750.318 338.696 729.77 338.696 729.77C338.696 729.77 337.337 744.039 333.543 752.415C329.748 760.791 330.231 835.859 330.231 835.859L330.498 900.818C337.337 935.212 330.498 931.85 330.498 931.85C330.498 931.85 304.554 940.66 299.311 933.526C294.069 926.391 295.569 881.49 295.569 881.49C295.569 881.49 295.027 845.432 297.21 834.537C299.393 823.642 300.084 783.379 300.084 783.379C300.084 783.379 299.943 702.864 300.084 697.428C300.188 692.869 300.084 652.059 300.084 639.306C300.084 636.936 300.084 635.534 300.084 635.534L303.217 623.591L340.344 616.457H358.106C358.106 616.457 384.838 626.098 387.6 630.258C387.659 630.327 387.709 630.412 387.748 630.508C389.538 634.531 383.798 675.193 383.798 675.193Z" fill="#56BC82"/>
<path opacity="0.1" d="M338.718 858.013C338.718 858.013 346.886 888.202 350.74 890.299C354.594 892.396 338.718 858.013 338.718 858.013Z" fill="black"/>
<path opacity="0.1" d="M341.74 902.459C341.74 902.459 369.318 904.556 369.044 909.172C368.769 913.787 341.74 902.459 341.74 902.459Z" fill="black"/>
<path opacity="0.1" d="M304.844 890.39C305.935 891.974 325.88 894.949 324.239 897.844C322.598 900.738 306.485 906.368 306.485 906.368L304.844 890.39Z" fill="black"/>
<path opacity="0.1" d="M301.569 838.309C301.569 839.563 305.668 878.561 306.767 880.236C307.866 881.912 316.873 883.587 316.873 883.587L301.569 838.309Z" fill="black"/>
<path d="M331.308 305.257C327.394 311.969 325.701 321.485 321.142 327.16C318.373 330.579 314.868 332.209 311.645 334.534C308.422 336.859 305.229 340.403 304.272 345.668C303.202 351.594 305.267 357.646 306.351 363.572C307.472 369.703 307.539 376.108 307.606 382.524C307.68 390.285 307.762 398.046 307.672 405.806C307.539 417.898 306.885 430.548 302.705 440.793C317.801 448.167 333.855 449.169 349.686 450.115C352.728 450.448 355.784 450.33 358.811 449.762C361.435 448.96 364.03 447.952 366.586 446.742C371.64 444.69 376.848 443.667 382.075 443.699C384.355 443.699 386.679 443.916 388.877 443.004C391.075 442.092 393.191 439.756 393.785 436.383C394.312 433.351 393.54 430.126 392.53 427.402C390.689 422.434 388.075 418.285 386.1 413.385C384.084 408.209 382.887 402.378 382.607 396.363C382.328 390.347 382.972 384.315 384.489 378.752C386.241 372.495 389.063 367.048 390.785 360.78C392.55 354.05 393.019 346.684 392.137 339.557C391.255 332.431 389.059 325.842 385.81 320.573C379.818 311.16 371.219 307.513 362.992 305.576C359.528 304.948 356.223 302.988 353.383 299.878C350.228 296.687 346.136 295.912 342.438 296.618C338.172 297.352 334.221 300.418 331.308 305.257Z" fill="#3F3D56"/>
<g opacity="0.1">
<path opacity="0.1" d="M384.719 372.176C383.205 377.667 382.556 383.63 382.825 389.578C382.992 385.324 383.632 381.146 384.719 377.225C386.464 370.968 389.285 365.52 391.008 359.252C392.416 354.019 393.009 348.352 392.738 342.705C392.585 346.663 392 350.554 391.008 354.215C389.285 360.483 386.464 365.919 384.719 372.176Z" fill="black"/>
<path opacity="0.1" d="M307.828 380.974C307.873 385.441 307.918 389.92 307.925 394.387C307.925 388.233 307.888 382.091 307.828 375.948C307.769 369.577 307.695 363.127 306.574 356.985C305.831 353.087 304.732 349.132 304.346 345.201C303.685 350.785 305.564 356.449 306.574 362.022C307.695 368.107 307.769 374.603 307.828 380.974Z" fill="black"/>
<path opacity="0.1" d="M389.129 436.485C386.902 437.409 384.615 437.203 382.335 437.181C377.111 437.13 371.906 438.134 366.853 440.166C364.296 441.371 361.702 442.375 359.079 443.175C356.049 443.753 352.99 443.875 349.945 443.54C334.649 442.617 319.137 441.625 304.487 434.913C304.052 436.403 303.556 437.849 303.002 439.243C318.098 446.605 334.151 447.62 349.975 448.566C353.02 448.9 356.079 448.778 359.108 448.201C361.722 447.409 364.307 446.408 366.853 445.204C371.895 443.163 377.091 442.148 382.305 442.184C384.585 442.184 386.902 442.4 389.1 441.477C391.298 440.554 393.414 438.24 394.008 434.867C394.258 433.305 394.232 431.668 393.933 430.126C393.273 433.317 391.231 435.54 389.129 436.485Z" fill="black"/>
</g>
<path d="M367.135 422.981C366.586 424.873 364.269 441.215 363.719 442.89C363.17 444.565 360.17 471.381 359.895 472.885C359.621 474.39 340.122 466.595 340.122 466.595L328.382 451.494L316.316 433.067C316.316 433.067 315.959 416.439 324.847 411.106C325.452 410.742 326.072 410.445 326.704 410.217C337.486 406.24 336.401 355.925 336.401 355.925L358.529 370.592C358.529 370.592 354.43 399.949 354.571 405.613C354.609 407.516 355.581 408.701 356.851 409.419C358.814 410.276 360.858 410.616 362.895 410.422C362.895 410.422 367.685 421.1 367.135 422.981Z" fill="#FBBEBE"/>
<path d="M406.75 478.116L409.891 479.381C409.891 479.381 412.215 484.806 406.75 489.854C403.28 493.09 399.949 496.664 396.778 500.556L380.627 508.1L377.516 493.114L392.545 475.609L406.75 478.116Z" fill="#56BC82"/>
<path opacity="0.1" d="M406.75 478.116L409.891 479.381C409.891 479.381 412.215 484.806 406.75 489.854C403.28 493.09 399.949 496.664 396.778 500.556L380.627 508.1L377.516 493.114L392.545 475.609L406.75 478.116Z" fill="black"/>
<path d="M288.886 492.59L282.604 502.026C282.604 502.026 293.935 522.152 302.653 523.405C311.37 524.659 316.991 508.1 316.991 508.1L309.447 489.866L288.886 492.59Z" fill="#56BC82"/>
<path opacity="0.1" d="M288.886 492.59L282.604 502.026C282.604 502.026 293.935 522.152 302.653 523.405C311.37 524.659 316.991 508.1 316.991 508.1L309.447 489.866L288.886 492.59Z" fill="black"/>
<path opacity="0.1" d="M348.557 388.803C360.626 388.803 370.41 373.787 370.41 355.264C370.41 336.74 360.626 321.724 348.557 321.724C336.488 321.724 326.704 336.74 326.704 355.264C326.704 373.787 336.488 388.803 348.557 388.803Z" fill="black"/>
<path d="M348.557 386.285C360.626 386.285 370.41 371.268 370.41 352.745C370.41 334.222 360.626 319.206 348.557 319.206C336.488 319.206 326.704 334.222 326.704 352.745C326.704 371.268 336.488 386.285 348.557 386.285Z" fill="#FBBEBE"/>
<path opacity="0.1" d="M387.763 634.315C382.787 635.189 377.886 636.873 373.142 639.34C364.974 643.511 300.967 639.409 300.076 639.34C300.076 636.97 300.076 635.568 300.076 635.568L303.21 623.625L340.337 616.491H358.099C358.099 616.491 384.83 626.132 387.592 630.292C387.704 632.799 387.763 634.315 387.763 634.315Z" fill="black"/>
<path opacity="0.1" d="M367.135 422.981C366.586 424.873 364.269 441.215 363.719 442.89C363.17 444.565 360.17 471.381 359.895 472.885C359.621 474.39 340.122 466.595 340.122 466.595L328.382 451.494L316.316 433.067C316.316 433.067 315.959 416.439 324.847 411.106L346.916 450.047L356.851 409.419C358.814 410.276 360.858 410.615 362.895 410.422C362.895 410.422 367.685 421.1 367.135 422.981Z" fill="black"/>
<path d="M346.916 451.301L324.328 411.413C323.005 410.118 321.494 409.347 319.93 409.17C318.365 408.993 316.797 409.415 315.365 410.399C310.308 413.761 304.026 416.485 302.385 418.16C300.744 419.835 294.596 430.206 294.596 430.206L312.907 503.724L304.843 552.147C304.843 552.147 306.076 576.888 302.935 585.903C301.022 591.667 300.126 598.099 300.336 604.559C300.336 604.559 301.294 616.513 300.202 622.793C299.565 626.991 299.516 631.35 300.061 635.58C300.061 635.58 364.952 639.773 373.142 635.58C377.885 633.106 382.786 631.421 387.763 630.554C387.763 630.554 386.278 588.615 384.793 578.552C383.308 568.489 386.026 530.129 386.026 530.129L384.251 489.034L394.899 446.867C394.899 446.867 389.129 419.835 383.115 417.112C383.115 417.112 372.192 413.123 369.868 411.243C367.544 409.362 360.712 407.675 360.712 407.675L357.126 409.522L346.916 451.301Z" fill="#56BC82"/>
<path opacity="0.1" d="M378.431 487.646L330.899 482.686C329.696 482.56 328.655 483.955 328.573 485.801L323.47 600.98C323.388 602.826 324.297 604.425 325.5 604.55L373.032 609.511C374.235 609.636 375.276 608.242 375.358 606.395L380.461 491.217C380.543 489.37 379.634 487.772 378.431 487.646Z" fill="black"/>
<path d="M380.068 485.145L332.536 480.184C331.333 480.059 330.292 481.454 330.21 483.3L325.107 598.479C325.025 600.325 325.934 601.924 327.137 602.049L374.669 607.01C375.871 607.135 376.913 605.74 376.995 603.894L382.098 488.715C382.18 486.869 381.271 485.27 380.068 485.145Z" fill="#3F3D56"/>
<path d="M378.499 494.173L333.294 489.456L328.648 594.311L373.854 599.028L378.499 494.173Z" fill="white"/>
<path opacity="0.1" d="M374.446 520.937L337.519 516.97L336.799 532.765L373.725 536.732L374.446 520.937Z" fill="black"/>
<path opacity="0.1" d="M373.11 583.707L367.25 583.095L366.885 591.327L372.745 591.939L373.11 583.707Z" fill="black"/>
<path opacity="0.1" d="M367.329 563.84L337.333 560.709L336.968 568.941L366.965 572.071L367.329 563.84Z" fill="black"/>
<path d="M372.904 490.253L341.671 486.993L341.11 499.648L372.343 502.908L372.904 490.253Z" fill="#3F3D56"/>
<path opacity="0.1" d="M372.904 490.253L341.671 486.993L341.11 499.648L372.343 502.908L372.904 490.253Z" fill="black"/>
<path opacity="0.1" d="M349.648 632.001C349.648 632.001 349.374 694.066 338.718 729.702C338.718 729.702 351.564 682.738 351.564 680.857C351.564 678.977 358.663 659.261 356.762 653.392C354.861 647.523 349.648 632.001 349.648 632.001Z" fill="black"/>
<path opacity="0.1" d="M350.228 344.357C349.819 338.864 350.696 333.327 352.7 328.733C352.462 333.338 353.31 337.92 355.091 341.644C356.871 345.368 359.465 347.986 362.398 349.019C362.148 348.685 361.969 348.243 361.885 347.751C361.802 347.259 361.817 346.739 361.93 346.261C363.452 348.905 364.618 352.039 366.341 354.363C368.063 356.688 370.648 358.079 372.675 356.426C375.429 354.147 375.459 348.141 374.746 343.469C373.217 333.518 370.078 324.319 365.621 316.721C364.508 314.425 363.065 312.555 361.403 311.258C359.741 309.96 357.906 309.272 356.042 309.245C351.824 308.744 347.443 309.314 343.664 312.22C341.537 314.001 339.544 316.137 337.723 318.59L327.328 331.605C326.327 332.711 325.471 334.095 324.803 335.685C324.357 337.014 324.089 338.467 324.016 339.958C323.75 344.221 324.264 348.512 325.5 352.351C326.735 356.19 328.644 359.425 331.011 361.691C330.961 358.322 331.564 355.007 332.745 352.166C333.926 349.325 335.63 347.087 337.642 345.736C337.957 346.141 338.212 346.644 338.39 347.212C338.568 347.78 338.665 348.4 338.674 349.03L340.864 343.035C341.19 341.945 341.703 341.011 342.349 340.335C343.701 339.195 345.386 340.54 346.537 342.147C347.688 343.753 348.809 345.759 350.354 346.01L350.413 337.087" fill="black"/>
<path d="M350.228 343.104C349.818 337.607 350.695 332.065 352.7 327.468C352.032 336.585 356.509 345.999 362.405 347.754C362.155 347.423 361.976 346.983 361.892 346.492C361.809 346.002 361.824 345.484 361.937 345.007C363.46 347.651 364.625 350.774 366.348 353.11C368.071 355.446 370.655 356.825 372.682 355.161C375.437 352.882 375.467 346.876 374.754 342.215C373.224 332.264 370.085 323.065 365.628 315.468C364.245 312.88 362.502 310.801 360.527 309.382C359.097 308.57 357.594 308.101 356.071 307.992C351.854 307.49 347.473 308.049 343.693 310.955C341.568 312.744 339.576 314.884 337.753 317.337L327.357 330.351C326.355 331.454 325.499 332.839 324.833 334.431C324.386 335.76 324.118 337.214 324.046 338.705C323.781 342.966 324.295 347.255 325.53 351.092C326.766 354.929 328.674 358.162 331.04 360.426C330.992 357.058 331.597 353.744 332.777 350.903C333.958 348.063 335.661 345.824 337.671 344.471C337.985 344.877 338.239 345.381 338.417 345.948C338.595 346.516 338.693 347.135 338.703 347.765L340.886 341.793C341.21 340.701 341.724 339.766 342.371 339.092C343.723 337.953 345.408 339.297 346.559 340.904C347.71 342.511 348.832 344.506 350.376 344.768L350.435 335.833" fill="#3F3D56"/>
<path d="M360.579 554.654C358.67 553.173 327.112 560.728 327.112 560.728C327.112 560.728 321.914 558.449 309.351 555.281C296.787 552.113 295.985 533.263 295.985 533.263L294.611 495.53L298.851 489.832L317.014 508.066C317.014 508.066 317.296 517.286 317.014 518.949C316.835 520.089 316.36 521.445 316.405 522.368C316.419 522.618 316.486 522.854 316.596 523.04C316.706 523.225 316.853 523.35 317.014 523.394C318.246 523.873 335.043 528.044 335.043 528.044C335.043 528.044 373.974 523.952 383.679 544.078C384.448 545.556 385.03 547.241 385.394 549.047C387.8 562.803 362.309 555.965 360.579 554.654Z" fill="#FBBEBE"/>
<path opacity="0.1" d="M385.417 549.127C383.932 550.141 383.011 550.871 383.011 550.871C383.011 550.871 369.081 550.244 361.254 545.89C353.428 541.537 343.916 542.312 343.916 542.312C343.916 542.312 311.303 533.696 316.36 522.448C316.374 522.698 316.441 522.934 316.551 523.12C316.661 523.305 316.808 523.429 316.969 523.474C318.202 523.952 334.998 528.123 334.998 528.123C334.998 528.123 373.93 524.032 383.635 544.158C384.427 545.627 385.032 547.313 385.417 549.127Z" fill="black"/>
<path d="M398.961 482.732C398.961 482.732 400.876 503.485 401.01 505.171C401.144 506.858 401.834 527.178 401.01 529.491C400.186 531.804 398.961 535.565 398.961 535.565C398.961 535.565 400.327 539.964 394.862 541.651C389.397 543.338 382.981 548.352 382.981 548.352C382.981 548.352 369.043 547.725 361.262 543.326C353.48 538.927 343.916 539.759 343.916 539.759C343.916 539.759 302.519 528.853 320.281 515.542C338.042 502.231 350.606 520.26 350.606 520.26L370.41 518.38C370.41 518.38 377.791 511.451 379.84 512.089C381.287 512.372 382.757 512.008 384.073 511.04L384.214 489.023L398.961 482.732Z" fill="#FBBEBE"/>
<path opacity="0.1" d="M298.539 431.79L294.574 431.471L282.56 503.268C282.56 503.268 295.532 498.231 301.123 503.268C306.715 508.305 316.969 509.342 316.969 509.342L313.145 452.11L298.539 431.79Z" fill="black"/>
<path d="M298.539 430.525L294.574 430.206L282.56 502.003C282.56 502.003 295.532 496.966 301.123 502.003C306.715 507.04 316.969 508.077 316.969 508.077L313.145 450.845L298.539 430.525Z" fill="#56BC82"/>
<path opacity="0.1" d="M389.404 446.252L394.862 448.144C394.862 448.144 408.799 478.914 409.891 480.635C410.982 482.356 404.693 488.612 402.102 488.612C399.51 488.612 386.805 490.892 383.115 496.157C379.424 501.422 380.961 474.925 380.961 474.321C380.961 473.717 385.543 456.999 385.543 456.999L389.404 446.252Z" fill="black"/>
<path d="M389.404 444.999L394.862 446.879C394.862 446.879 408.799 477.706 409.891 479.381C410.982 481.057 404.693 487.359 402.102 487.359C399.51 487.359 386.805 489.638 383.115 494.903C379.424 500.168 380.961 473.672 380.961 473.068C380.961 472.464 385.573 455.688 385.573 455.688L389.404 444.999Z" fill="#56BC82"/>
<g opacity="0.1">
<path opacity="0.1" d="M352.663 327.571C352.631 326.697 352.643 325.82 352.7 324.949C351.57 327.553 350.792 330.479 350.413 333.554V336.198C350.413 336.198 350.413 336.141 350.413 336.106V336.733C350.413 338.579 350.413 340.437 350.376 342.283H350.272V343.138C350.272 342.842 350.272 342.557 350.235 342.26C348.75 341.896 347.688 339.981 346.582 338.454C345.475 336.927 343.745 335.468 342.394 336.642C341.746 337.316 341.233 338.25 340.909 339.343L338.703 345.315C338.694 344.686 338.597 344.068 338.419 343.502C338.241 342.936 337.986 342.435 337.671 342.033C335.66 343.383 333.955 345.621 332.775 348.462C331.594 351.303 330.99 354.619 331.04 357.987C329.012 356.036 327.314 353.373 326.089 350.216C324.864 347.059 324.146 343.5 323.994 339.833C323.865 343.928 324.45 348.001 325.688 351.633C326.927 355.265 328.774 358.324 331.04 360.495C330.992 357.126 331.597 353.812 332.777 350.972C333.958 348.131 335.661 345.893 337.671 344.54C337.985 344.946 338.24 345.449 338.417 346.017C338.595 346.584 338.693 347.204 338.703 347.833L340.886 341.862C341.21 340.769 341.724 339.834 342.372 339.161C343.723 338.021 345.409 339.366 346.559 340.973C347.71 342.58 348.832 344.574 350.376 344.836C350.376 341.919 350.396 339.009 350.436 336.106C350.8 333.062 351.557 330.159 352.663 327.571Z" fill="black"/>
<path opacity="0.1" d="M350.153 339.047C350.19 338.272 350.25 337.497 350.324 336.767L350.405 333.622C350.182 335.409 350.098 337.23 350.153 339.047Z" fill="black"/>
<path opacity="0.1" d="M372.682 352.643C370.655 354.307 368.071 352.916 366.348 350.591C364.625 348.266 363.46 345.132 361.937 342.488C361.825 342.967 361.809 343.486 361.893 343.979C361.976 344.471 362.155 344.913 362.405 345.246C362.257 345.246 362.116 345.132 361.975 345.075C363.46 347.697 364.64 350.774 366.348 353.053C368.056 355.332 370.655 356.768 372.682 355.104C374.709 353.44 375.288 349.543 375.11 345.748C374.977 348.734 374.278 351.321 372.682 352.643Z" fill="black"/>
<path opacity="0.1" d="M361.93 345.053C359.447 344.014 357.23 341.835 355.576 338.809C353.923 335.782 352.911 332.051 352.678 328.118C352.255 337.064 356.651 346.033 362.405 347.754C362.16 347.427 361.984 346.995 361.899 346.514C361.815 346.033 361.825 345.524 361.93 345.053Z" fill="black"/>
</g>
<path d="M718.529 531.314C718.529 531.314 715.603 530.688 715.603 524.157C715.603 517.627 713.509 505.399 713.509 505.399C713.509 505.399 711.697 484.122 709.195 480.749C706.693 477.375 703.477 457.569 703.477 457.569C703.477 457.569 702.928 446.822 701.807 444.508C700.685 442.195 699.171 436.531 696.936 428.451C694.7 420.371 685.404 414.832 685.404 414.832C685.404 414.832 668.556 399.835 663.781 394.946C663.344 394.541 662.936 394.067 662.563 393.533C661.732 391.869 658.108 391.835 658.108 391.835C657.729 388.154 657.365 383.937 657.247 380.119C657.247 379.709 657.247 379.299 657.247 378.888C662.571 374.058 666.581 366.443 668.541 357.44C668.63 357.007 668.704 356.563 668.786 356.118C669.112 355.964 669.412 355.706 669.668 355.36C669.924 355.014 670.13 354.589 670.271 354.113C670.694 352.643 670.709 350.933 671.244 349.554C671.867 347.936 673.055 347.07 673.991 345.862C676.352 342.773 676.961 337.588 676.85 332.881C676.775 329.052 676.374 325.2 676.53 321.405C676.53 321.086 676.53 320.767 676.575 320.448C676.62 319.889 676.672 319.308 676.738 318.761C677.102 315.935 677.897 313.268 678.342 310.465C678.788 307.661 678.832 304.504 677.793 302.088C676.271 298.544 673.1 297.838 670.315 297.53C667.16 297.12 664.375 297.644 662.318 293.621C661.375 291.52 660.311 289.552 659.14 287.74C658.724 287.148 654.685 283.353 654.685 283.113C650.733 280.293 646.249 279.763 642.062 281.621C639.96 282.555 637.993 284.082 635.861 284.846C631.287 286.51 626.015 284.709 622.124 288.732C619.956 291.011 618.657 294.647 617.439 298.168C616.449 301.07 615.444 303.976 614.424 306.886C612.776 311.661 611.112 316.516 610.422 321.804C610.277 322.959 610.186 324.128 610.147 325.303C610.147 325.724 610.147 326.146 610.147 326.568C610.147 326.75 610.147 326.932 610.147 327.115C610.147 327.502 610.147 327.89 610.192 328.254C610.236 328.619 610.192 328.722 610.244 328.961C610.296 329.2 610.31 329.736 610.355 330.101C610.4 330.465 610.489 331.115 610.578 331.605C610.578 331.821 610.667 332.027 610.711 332.243C610.756 332.46 610.875 333.007 610.971 333.383C611.068 333.759 611.075 333.782 611.135 333.975C611.246 334.374 611.38 334.762 611.513 335.115C611.573 335.263 611.617 335.411 611.677 335.559C611.88 336.093 612.109 336.603 612.36 337.087C613.942 340.129 616.288 342.067 618.018 344.916C618.018 345.03 618.018 345.144 618.018 345.258C618.018 345.565 618.018 345.873 618.018 346.192C618.124 352.547 619.24 358.766 621.269 364.307C623.299 369.849 626.179 374.545 629.661 377.988C629.661 378.421 629.698 378.866 629.713 379.31C629.858 382.689 629.831 386.08 629.631 389.453C629.328 388.907 628.95 388.473 628.523 388.181C628.097 387.889 627.633 387.747 627.166 387.766C626.847 387.742 626.527 387.784 626.216 387.891L626.149 387.812V387.914C624.515 388.53 622.503 391.139 620.58 398.558C620.58 398.558 614.729 408.678 610.273 408.257C605.818 407.835 594.539 418.798 594.539 418.798C594.539 418.798 583.534 429.75 581.173 440.919C579.853 447.253 578.268 453.45 576.428 459.472L562.788 502.459L560.285 536.648C560.285 536.648 561.674 551.816 561.399 554.141C561.124 556.466 567.109 577.321 567.109 577.321C567.109 577.321 586.883 630.633 594.962 633.369L595.541 632.753C595.889 633.022 596.255 633.229 596.633 633.369L598.296 631.579C598.399 633.583 598.354 635.597 598.163 637.585C597.056 642.862 598.586 677.21 600.531 683.946C602.477 690.681 601.786 779.002 601.786 779.002L601.511 786.786C601.511 786.786 601.511 787.037 601.578 787.47L601.511 789.316L601.712 789.476C601.92 791.952 601.852 794.465 601.511 796.906C600.813 800.325 600.531 809.978 600.531 809.978C600.531 809.978 594.962 864.543 597.606 875.507C600.249 886.47 602.484 898.482 602.484 898.482C602.484 898.482 605.269 912.157 602.618 914.437C599.967 916.716 592.46 920.762 593.989 926.448C595.4 931.713 600.754 945.822 601.548 947.885L601.482 949.024L600.39 967.179C600.567 969.576 600.99 971.915 601.645 974.108C602.841 978.074 605.157 982.165 609.583 981.721C610.325 981.641 611.179 981.515 612.018 981.344C620.105 979.669 630.055 974.131 630.055 974.131C629.539 973.629 629.067 973.028 628.651 972.341C628.254 971.75 627.939 971.042 627.726 970.258C627.513 969.474 627.406 968.632 627.411 967.783C627.53 964.466 623.498 948.728 622.488 944.842L622.258 943.976C622.258 943.976 631.451 929.218 629.921 916.157C629.921 916.157 619.748 907.04 623.097 902.026C626.446 897.012 632.431 882.652 632.431 882.652C632.431 882.652 632.706 828.918 632.431 820.907C632.144 815.334 632.317 809.729 632.943 804.223C633.055 803.402 633.188 802.593 633.329 801.784C637.965 802.857 642.646 803.402 647.334 803.413C649.046 803.413 650.779 803.36 652.531 803.254C652.531 804.014 652.554 804.834 652.598 805.715C652.984 819.026 653.705 842.377 654.291 851.05C655.123 863.472 659.719 896.989 659.719 896.989C659.719 896.989 650.95 905.616 661.249 926.916C661.249 926.916 661.249 934.619 660.566 935.748C659.836 939.402 659.248 943.12 658.806 946.882C658.375 950.882 658.197 954.951 658.895 957.048C660.566 962.085 670.59 961.674 670.59 961.674C670.671 961.646 670.753 961.626 670.835 961.617C672.727 961.31 674.64 961.586 676.462 962.427C678.284 963.269 679.979 964.659 681.446 966.518C685.255 971.213 699.705 969.162 707.539 967.658C710.606 967.053 712.655 966.518 712.655 966.518C712.754 965.985 712.789 965.429 712.759 964.877C712.677 961.925 711.17 955.452 700.953 949.674C700.953 949.674 691.344 939.759 691.478 931.121H691.262H690.156C690.854 931.087 691.344 931.087 691.344 931.087C691.344 931.087 687.579 910.015 689.117 908.294C690.654 906.573 686.05 883.222 686.05 883.222C686.05 883.222 683.414 844.019 683.265 841.283C683.275 838.926 683.51 836.584 683.963 834.332L683.265 812.827C683.265 812.827 683.132 805.681 683.265 803.356C683.25 801.338 683.146 799.324 682.953 797.328C682.887 796.53 682.82 795.698 682.746 794.878C686.347 793.476 688.686 792.188 688.686 792.188L688.27 717.371C691.329 708.254 691.894 688.242 691.879 674.065C691.879 664.948 691.611 658.201 691.611 658.201L695.792 647.728C695.792 647.728 696.757 635.192 695.228 632.445C694.552 631.203 694.856 629.915 695.413 628.856C695.706 628.487 696.017 628.152 696.341 627.853C696.305 627.773 696.273 627.69 696.245 627.602C696.537 627.228 696.847 626.889 697.173 626.588C697.173 626.588 695.688 623.055 697.017 621.562C698.265 622.861 699.378 623.898 700.225 624.639C700.166 625.471 700.106 625.95 700.106 625.95L700.463 624.81C701.279 625.517 701.777 625.95 701.777 625.95C701.777 625.95 708.326 605.926 708.185 602.986C708.044 600.046 712.64 587.601 712.64 587.601C712.64 587.601 713.197 581.059 715.707 578.324C718.217 575.589 717.652 555.771 717.652 555.771C717.652 555.771 718.35 545.446 720.021 541.241C721.692 537.035 718.529 531.314 718.529 531.314ZM593.217 522.528L593.343 527.303C592.601 525.468 592.066 524.157 592.066 524.157L593.217 522.528Z" fill="url(#paint1_linear)"/>
<path d="M702.163 617.288L700.559 627.773C700.559 627.773 687.713 617.687 685.404 604.923C683.094 592.159 689.272 587.293 689.272 587.293L701.25 595.066L702.163 617.288Z" fill="white"/>
<path opacity="0.1" d="M702.163 617.288L700.559 627.773C700.559 627.773 687.713 617.687 685.404 604.923C683.094 592.159 689.272 587.293 689.272 587.293L701.25 595.066L702.163 617.288Z" fill="black"/>
<path d="M630.07 974.119C630.07 974.119 618.189 980.82 610.021 981.664C605.684 982.108 603.405 978.028 602.232 974.097C601.594 971.928 601.178 969.622 600.999 967.259L602.076 949.196L602.64 939.588L619.993 932.659L622.451 944.204L622.681 945.07C623.661 948.933 627.627 964.592 627.508 967.863C627.498 968.709 627.601 969.549 627.809 970.332C628.017 971.116 628.326 971.827 628.718 972.421C629.12 973.073 629.574 973.643 630.07 974.119Z" fill="white"/>
<path d="M711.185 964.934C711.216 965.486 711.18 966.042 711.081 966.575C711.081 966.575 685.671 973.071 680.473 966.575C679.012 964.677 677.309 963.268 675.473 962.438C673.637 961.608 671.709 961.375 669.811 961.754C669.811 961.754 659.979 962.164 658.338 957.196C657.655 955.11 657.833 951.064 658.257 947.087C658.689 943.346 659.264 939.647 659.979 936.01L660.373 935.531L662.712 932.648L690.097 931.406H690.305C690.171 939.999 699.594 949.856 699.594 949.856C709.626 955.555 711.103 961.994 711.185 964.934Z" fill="white"/>
<path opacity="0.1" d="M711.192 964.934C711.219 965.487 711.181 966.042 711.081 966.575C711.081 966.575 685.671 973.071 680.481 966.575C679.019 964.676 677.315 963.266 675.477 962.436C673.64 961.606 671.71 961.374 669.811 961.754C669.811 961.754 659.972 962.164 658.331 957.196C657.655 955.11 657.826 951.065 658.249 947.076C662.036 947.657 668.014 949.104 670.36 952.569C673.909 957.811 679.924 963.053 683.607 963.475C686.518 963.749 703.826 964.592 711.192 964.934Z" fill="black"/>
<path opacity="0.1" d="M630.07 974.119C630.07 974.119 618.189 980.82 610.021 981.664C605.684 982.108 603.405 978.028 602.232 974.097C605.261 975.658 609.457 977.287 611.662 975.795C614.276 974.005 623.543 972.866 628.74 972.376C629.132 973.043 629.579 973.629 630.07 974.119Z" fill="black"/>
<path d="M647.698 434.058C637.896 428.212 625.288 408.895 628.436 399.869C629.132 397.589 629.547 395.132 629.661 392.621C629.864 389.211 629.894 385.782 629.75 382.364C629.529 376.764 629.09 371.189 628.436 365.669C628.436 365.669 659.036 366.728 657.254 373.646C656.734 375.686 656.645 379.207 656.794 383.139C656.942 387.071 657.306 391.55 657.692 395.322C658.219 400.484 658.761 404.439 658.761 404.439C658.761 404.439 656.883 408.462 655.791 408.678C654.7 408.895 661.761 442.434 647.698 434.058Z" fill="#CF6F80"/>
<path opacity="0.1" d="M622.651 945.013L622.421 945.4C613.273 928.42 602.209 949.594 602.209 949.594L602.046 949.138L602.61 939.531L619.963 932.602L622.421 944.147L622.651 945.013Z" fill="black"/>
<path opacity="0.1" d="M690.32 932.603C690.32 932.603 683.637 932.397 680.073 937.229C676.508 942.061 659.281 938.266 660.024 937.229C660.24 936.703 660.373 936.106 660.41 935.486L662.749 932.603L690.134 931.36C690.238 932.158 690.32 932.603 690.32 932.603Z" fill="black"/>
<path d="M634.035 799.254C633.538 801.143 633.16 803.101 632.906 805.1C632.287 810.577 632.115 816.151 632.394 821.693C632.668 829.671 632.394 883.131 632.394 883.131C632.394 883.131 626.52 897.388 623.238 902.414C619.956 907.439 629.921 916.465 629.921 916.465C631.406 929.468 622.407 944.147 622.407 944.147C613.258 927.166 602.195 948.329 602.195 948.329C602.195 948.329 596.18 932.375 594.68 926.676C593.18 920.978 600.554 917.046 603.145 914.722C605.736 912.397 603.011 898.767 603.011 898.767C603.011 898.767 600.828 886.812 598.229 875.906C595.63 864.999 601.096 810.719 601.096 810.719C601.096 810.719 601.378 801.066 602.053 797.704C602.391 795.277 602.458 792.78 602.254 790.319C602.209 789.487 602.157 788.803 602.12 788.325C602.083 787.846 602.053 787.641 602.053 787.641L602.157 787.367L605.87 776.746C605.87 776.746 635.817 792.564 634.035 799.254Z" fill="#56BC82"/>
<path d="M690.319 931.349C690.319 931.349 683.637 931.132 680.072 935.907C676.508 940.682 659.281 936.956 660.024 935.907C660.766 934.859 660.699 927.109 660.699 927.109C650.593 905.924 659.214 897.331 659.214 897.331C659.214 897.331 654.707 863.997 653.89 851.632C653.319 843.005 652.613 819.722 652.235 806.536C652.071 800.838 651.975 796.906 651.975 796.906L660.157 794.411L661.219 794.091L681.134 787.949C681.134 787.949 681.684 793.647 682.055 798.308C682.243 800.298 682.344 802.304 682.359 804.314C682.233 806.593 682.359 813.739 682.359 813.739L683.043 835.118C682.602 837.363 682.372 839.692 682.359 842.036C682.501 844.771 685.092 883.758 685.092 883.758C685.092 883.758 689.599 907.029 688.062 908.704C686.525 910.38 690.319 931.349 690.319 931.349Z" fill="#56BC82"/>
<path opacity="0.1" d="M657.254 373.68C656.734 375.72 656.645 379.242 656.794 383.173C652.695 386.961 647.983 388.898 643.199 388.761C638.416 388.624 633.754 386.419 629.75 382.398C629.529 376.798 629.09 371.223 628.436 365.703C628.436 365.703 659.036 366.763 657.254 373.68Z" fill="black"/>
<path d="M669.068 348.517C669.149 358.857 666.55 368.823 661.843 376.222C657.136 383.621 650.707 387.847 643.97 387.971C637.233 388.095 630.74 384.106 625.919 376.883C621.098 369.659 618.344 359.792 618.263 349.452C618.263 349.133 618.263 348.836 618.263 348.517C618.263 338.174 620.94 328.255 625.706 320.941C630.471 313.628 636.934 309.519 643.673 309.519C650.412 309.519 656.875 313.628 661.64 320.941C666.406 328.255 669.083 338.174 669.083 348.517H669.068Z" fill="#CF6F80"/>
<path opacity="0.1" d="M647.698 434.058C637.896 428.212 625.288 408.895 628.436 399.869C629.132 397.589 629.547 395.132 629.661 392.621L643.079 409.556L651.381 420.006L657.692 395.356C658.219 400.519 658.761 404.473 658.761 404.473C658.761 404.473 656.883 408.496 655.791 408.713C654.7 408.929 661.761 442.434 647.698 434.058Z" fill="black"/>
<path d="M682.396 508.898L671.192 797.795L656.578 799.265L618.731 631.75L624.939 432.873L626.253 390.855L643.079 412.063L651.38 422.514L657.878 397.134L669.959 413.294L682.396 508.898Z" fill="#56BC82"/>
<path opacity="0.1" d="M634.035 799.254C633.538 801.143 633.16 803.101 632.906 805.1C622.263 802.585 611.925 797.633 602.239 790.41L602.039 790.251L602.105 788.416V787.459L605.818 776.837C605.818 776.837 635.817 792.564 634.035 799.254Z" fill="black"/>
<path opacity="0.1" d="M660.402 805.146C657.684 805.859 654.943 806.342 652.19 806.593C652.026 800.895 651.93 796.963 651.93 796.963L660.157 794.411L660.402 805.146Z" fill="black"/>
<path opacity="0.1" d="M682.085 798.308C676.805 800.416 668.645 802.787 661.353 801.305L661.249 794.091L681.164 787.949C681.164 787.949 681.691 793.601 682.085 798.308Z" fill="black"/>
<path opacity="0.1" d="M661.219 802.627C630.775 810.605 602.893 787.732 602.893 787.732L603.16 779.983C603.16 779.983 603.85 692.128 601.935 685.393C600.019 678.658 598.526 644.549 599.611 639.34C600.695 634.132 595.653 555.498 595.653 555.498L594.836 523.588L564.919 504.932L578.285 462.161C580.09 456.166 581.642 450 582.933 443.699C585.257 432.588 596.046 421.682 596.046 421.682C596.046 421.682 607.11 410.787 611.484 411.197C615.857 411.607 621.59 401.556 621.59 401.556C625.822 384.997 629.654 392.439 629.654 392.439C629.654 393.236 629.654 392.439 629.446 394.889C627.961 413.066 653.46 470.504 653.824 471.529L656.281 562.313L658.739 677.199L661.219 802.627Z" fill="black"/>
<path d="M660.403 802.627C629.958 810.605 602.068 787.732 602.068 787.732L602.343 779.983C602.343 779.983 603.026 692.128 601.11 685.393C599.195 678.658 597.702 644.514 598.794 639.261C599.885 634.007 594.814 555.452 594.814 555.452L593.99 523.542L564.08 504.886L577.446 462.116C579.246 456.122 580.799 449.959 582.094 443.665C584.418 432.588 595.244 421.67 595.244 421.67C595.244 421.67 606.308 410.775 610.674 411.186C615.041 411.596 620.803 401.556 620.803 401.556C625.043 384.997 629.713 392.439 629.713 392.439C629.713 393.236 629.268 393.578 629.505 394.889C632.773 412.519 652.702 470.504 653.066 471.529L655.524 562.313L657.93 677.256L660.403 802.627Z" fill="white"/>
<path opacity="0.1" d="M652.197 474.093C648.923 471.997 631.577 441.602 631.577 441.602V434.685C630.946 432.406 627.189 433.796 624.152 435.391L625.458 393.373L626.944 395.265C630.188 412.884 651.841 473.079 652.197 474.093Z" fill="black"/>
<path d="M653.021 471.586C649.739 469.478 632.394 439.095 632.394 439.095V432.166C631.763 429.887 628.013 431.277 624.968 432.873L626.253 390.9L627.738 392.781C631.013 410.376 652.658 470.561 653.021 471.586Z" fill="white"/>
<path opacity="0.1" d="M602.892 623.158C603.301 623.158 624.062 619.807 624.062 619.807C624.062 619.807 636.634 657.757 635.809 666.977C634.985 676.196 633.493 684.379 628.436 682.931C623.379 681.484 601.222 684.071 601.222 684.071L602.892 623.158Z" fill="black"/>
<path d="M602.068 620.639C602.484 620.639 623.245 617.288 623.245 617.288C623.245 617.288 635.809 655.295 634.992 664.412C634.176 673.529 632.668 681.815 627.619 680.367C622.57 678.92 600.397 681.507 600.397 681.507L602.068 620.639Z" fill="white"/>
<path d="M617.714 602.872C617.714 602.872 636.768 618.599 637.176 623.385C637.584 628.172 627.478 621.288 625.295 620.445C623.857 619.921 622.395 619.571 620.922 619.397L606.36 620.001L617.714 602.872Z" fill="#CF6F80"/>
<path opacity="0.1" d="M646.873 476.054C647.98 476.054 648.878 474.676 648.878 472.977C648.878 471.277 647.98 469.9 646.873 469.9C645.766 469.9 644.868 471.277 644.868 472.977C644.868 474.676 645.766 476.054 646.873 476.054Z" fill="black"/>
<path d="M646.873 474.8C647.98 474.8 648.878 473.422 648.878 471.723C648.878 470.024 647.98 468.646 646.873 468.646C645.766 468.646 644.868 470.024 644.868 471.723C644.868 473.422 645.766 474.8 646.873 474.8Z" fill="#3F3D56"/>
<path opacity="0.1" d="M650.564 609.254C651.671 609.254 652.569 607.876 652.569 606.177C652.569 604.478 651.671 603.1 650.564 603.1C649.456 603.1 648.559 604.478 648.559 606.177C648.559 607.876 649.456 609.254 650.564 609.254Z" fill="black"/>
<path d="M650.564 607.989C651.671 607.989 652.569 606.611 652.569 604.912C652.569 603.213 651.671 601.835 650.564 601.835C649.456 601.835 648.559 603.213 648.559 604.912C648.559 606.611 649.456 607.989 650.564 607.989Z" fill="#3F3D56"/>
<path opacity="0.1" d="M648.878 542.654C649.985 542.654 650.883 541.276 650.883 539.577C650.883 537.877 649.985 536.5 648.878 536.5C647.771 536.5 646.873 537.877 646.873 539.577C646.873 541.276 647.771 542.654 648.878 542.654Z" fill="black"/>
<path d="M648.878 541.4C649.985 541.4 650.883 540.023 650.883 538.323C650.883 536.624 649.985 535.246 648.878 535.246C647.771 535.246 646.873 536.624 646.873 538.323C646.873 540.023 647.771 541.4 648.878 541.4Z" fill="#3F3D56"/>
<path d="M695.094 618.759C695.094 618.759 696.46 621.904 695.094 623.317C693.728 624.73 695.228 628.354 695.228 628.354C695.228 628.354 691.819 631.408 693.319 634.178C694.819 636.947 693.869 649.381 693.869 649.381L689.77 659.854C689.77 659.854 690.015 666.566 690.03 675.638C690.03 689.792 689.488 709.69 686.488 718.762L686.889 793.191C686.889 793.191 672.536 801.248 660.521 798.787L658.739 679.353C658.739 679.353 661.338 611.624 662.296 598.633C662.857 591.888 663.085 585.088 662.979 578.29C662.979 578.29 662.571 557.959 661.197 548.534C661.197 548.534 659.712 507.644 659.563 496.328C659.497 490.914 659.682 475.119 659.89 460.099C660.12 443.677 660.38 428.189 660.38 428.189L657.67 395.265C657.67 395.265 660.38 394.855 661.197 396.518C661.563 397.043 661.961 397.512 662.385 397.92C667.071 402.775 683.6 417.704 683.6 417.704C683.6 417.704 692.748 423.288 694.938 431.289C697.129 439.289 698.651 444.964 699.713 447.244C700.775 449.523 701.354 460.235 701.354 460.235C701.354 460.235 704.502 479.951 706.96 483.29C709.418 486.629 711.185 507.827 711.185 507.827L689.466 534.038C689.466 534.038 687.557 577.641 687.149 579.327C686.74 581.014 695.094 618.759 695.094 618.759Z" fill="white"/>
<path d="M695.918 618.759C695.918 618.759 697.277 621.904 695.918 623.317C694.559 624.73 696.045 628.354 696.045 628.354C696.045 628.354 692.636 631.408 694.136 634.178C695.636 636.947 694.686 649.381 694.686 649.381L690.602 659.854C690.602 659.854 690.847 666.566 690.869 675.638C690.869 689.792 690.327 709.69 687.327 718.761L687.735 793.191C687.735 793.191 673.382 801.248 661.368 798.787L659.593 679.353C659.593 679.353 662.185 611.624 663.15 598.633C663.711 591.888 663.937 585.087 663.826 578.29C663.826 578.29 663.417 557.959 662.051 548.534C662.051 548.534 660.566 507.644 660.41 496.328C660.343 490.914 660.529 475.119 660.737 460.099C660.967 443.677 661.227 428.189 661.227 428.189L657.648 394.82C657.648 394.82 661.227 394.82 662.051 396.518C662.413 397.049 662.812 397.519 663.239 397.92C667.917 402.775 684.446 417.704 684.446 417.704C684.446 417.704 693.572 423.288 695.799 431.289C698.027 439.289 699.512 444.964 700.574 447.244C701.636 449.523 702.215 460.235 702.215 460.235C702.215 460.235 705.363 479.951 707.821 483.29C710.279 486.629 712.054 507.827 712.054 507.827L690.334 534.038C690.334 534.038 688.426 577.641 688.01 579.327C687.594 581.014 695.918 618.759 695.918 618.759Z" fill="white"/>
<path opacity="0.1" d="M669.907 437.864L671.875 446.64L661.546 462.594C661.776 446.172 662.036 430.685 662.036 430.685L658.457 397.328C658.457 397.328 662.036 397.328 662.86 399.026C663.223 399.556 663.621 400.026 664.048 400.427L672.825 439.278L669.907 437.864Z" fill="black"/>
<path d="M669.068 435.346L671.036 444.11L660.714 460.064C660.937 443.642 661.204 428.155 661.204 428.155L657.618 394.786C657.618 394.786 661.204 394.786 662.021 396.484C662.385 397.012 662.783 397.481 663.209 397.886L672.038 436.77L669.068 435.346Z" fill="white"/>
<path opacity="0.1" d="M669.068 348.517C669.071 352.623 668.65 356.705 667.821 360.609C667.681 360.645 667.538 360.637 667.4 360.586C667.262 360.535 667.132 360.442 667.019 360.312C666.818 350.056 663.536 340.414 659.489 332.22C658.351 329.749 656.974 327.558 655.405 325.724C653.817 323.895 651.843 323.038 649.866 323.32C647.638 323.787 645.67 326.112 643.421 326.408C640.45 326.784 637.792 323.628 634.844 323.479C633.646 323.495 632.463 323.903 631.376 324.678C630.288 325.452 629.321 326.574 628.54 327.97C626.99 330.776 625.839 334.048 625.161 337.577C623.994 342.931 623.358 348.525 623.275 354.17C623.238 357.361 623.038 361.361 621.107 362.523C621.253 360.178 621.08 357.812 620.598 355.575C620.116 353.339 619.336 351.28 618.308 349.531L618.263 349.452C618.263 349.133 618.263 348.836 618.263 348.517C618.263 338.174 620.94 328.255 625.706 320.941C630.471 313.628 636.934 309.519 643.673 309.519C650.412 309.519 656.875 313.628 661.64 320.941C666.406 328.255 669.083 338.174 669.083 348.517H669.068Z" fill="black"/>
<path d="M654.217 286.601C650.359 283.815 645.97 283.288 641.876 285.119C639.819 286.054 637.881 287.569 635.795 288.333C631.339 289.985 626.142 288.196 622.317 292.196C620.194 294.476 618.917 298.077 617.729 301.587L614.758 310.26C613.14 315.012 611.506 319.844 610.83 325.075C610.155 330.306 610.563 336.163 612.724 340.38C614.291 343.434 616.622 345.36 618.33 348.244C619.356 350.001 620.134 352.066 620.614 354.308C621.095 356.55 621.268 358.92 621.122 361.27C623.053 360.13 623.246 356.107 623.29 352.916C623.374 347.271 624.009 341.678 625.176 336.323C625.854 332.794 627.005 329.522 628.555 326.716C629.336 325.319 630.302 324.195 631.39 323.419C632.477 322.642 633.66 322.232 634.859 322.214C637.829 322.374 640.495 325.531 643.435 325.143C645.663 324.858 647.638 322.533 649.881 322.066C651.858 321.779 653.834 322.637 655.42 324.471C656.99 326.299 658.365 328.49 659.497 330.967C663.551 339.172 666.84 348.768 667.033 359.059C667.873 359.993 669.083 358.762 669.499 357.304C669.915 355.845 669.929 354.135 670.457 352.745C671.065 351.138 672.231 350.272 673.145 349.064C675.461 345.999 676.041 340.836 675.951 336.152C675.862 331.468 675.268 326.716 675.847 322.112C676.196 319.297 676.984 316.642 677.414 313.849C677.845 311.057 677.897 307.923 676.88 305.519C675.394 301.997 672.268 301.291 669.543 300.96C666.447 300.55 663.677 301.074 661.702 297.074C660.773 294.989 659.729 293.03 658.583 291.216C658.175 290.612 654.217 286.851 654.217 286.601Z" fill="#512E4E"/>
<path opacity="0.1" d="M573.488 526.927L565.736 504.921L563.278 538.882C563.278 538.882 564.644 553.97 564.369 556.284C564.095 558.597 569.968 579.339 569.968 579.339C569.968 579.339 589.371 632.389 597.294 635.112L624.025 605.755L616.926 591.92C616.926 591.92 614.469 590.45 613.852 591.92C613.852 591.92 600.665 557.116 599.306 554.609C597.947 552.101 598.207 547.053 598.207 547.053C598.207 547.053 596.158 543.702 596.841 540.557C597.524 537.411 592.92 526.517 592.92 526.517L597.153 520.442L573.488 526.927Z" fill="black"/>
<path d="M566.144 502.402L564.095 504.92L561.637 538.882C561.637 538.882 563.003 553.97 562.728 556.284C562.454 558.597 568.335 579.339 568.335 579.339C568.335 579.339 587.73 632.389 595.653 635.112L622.429 605.755L615.323 591.92C615.323 591.92 612.865 590.45 612.249 591.92C612.249 591.92 599.069 557.116 597.702 554.609C596.336 552.101 596.611 547.053 596.611 547.053C596.611 547.053 594.561 543.702 595.244 540.557C595.928 537.411 591.279 526.517 591.279 526.517L595.512 520.442L566.144 502.402Z" fill="white"/>
<path opacity="0.1" d="M693.319 635.488C694.804 638.258 693.869 650.702 693.869 650.702L689.77 661.107C689.77 661.107 690.015 667.831 690.03 676.903L683.139 680.208C682.515 680.506 681.854 680.571 681.211 680.398C680.567 680.224 679.96 679.817 679.44 679.211C678.92 678.604 678.501 677.815 678.22 676.91C677.939 676.005 677.802 675.01 677.823 674.008L679.018 615.203L695.094 624.628C693.728 626.086 695.228 629.665 695.228 629.665C695.228 629.665 691.819 632.719 693.319 635.488Z" fill="black"/>
<path d="M694.136 634.235C695.621 636.993 694.686 649.438 694.686 649.438L690.602 659.854C690.602 659.854 690.847 666.566 690.869 675.638L683.852 679C683.243 679.293 682.596 679.358 681.967 679.19C681.338 679.021 680.744 678.625 680.236 678.032C679.727 677.44 679.318 676.669 679.043 675.785C678.768 674.9 678.634 673.928 678.654 672.948L679.85 613.938L695.918 623.386C694.545 624.844 696.044 628.423 696.044 628.423C696.044 628.423 692.636 631.466 694.136 634.235Z" fill="white"/>
<path d="M699.468 606.177C699.468 606.177 698.376 616.878 695.644 617.505C692.911 618.132 691.686 634.816 688.961 634.235C686.236 633.654 688.04 618.713 688.136 615.818C688.233 612.924 685.166 600.935 687.453 598.211C689.74 595.487 697.017 598.211 697.017 598.211L699.468 606.177Z" fill="#CF6F80"/>
<path opacity="0.1" d="M705.245 523.781L710.39 507.827C710.39 507.827 712.447 519.986 712.447 526.482C712.447 532.978 715.313 533.616 715.313 533.616C715.313 533.616 718.454 539.315 716.799 543.474C715.143 547.634 714.482 557.936 714.482 557.936C714.482 557.936 715.024 577.641 712.566 580.364C710.108 583.088 709.559 589.595 709.559 589.595C709.559 589.595 705.052 601.96 705.193 604.901C705.334 607.841 698.911 627.75 698.911 627.75C698.911 627.75 702.052 603.009 683.748 592.319C683.748 592.319 683.607 583.931 684.973 581.629C686.339 579.327 688.471 578.21 687.134 566.632C685.797 555.053 686.748 541.092 686.748 538.3C686.748 535.508 690.847 518.106 690.847 518.106L705.245 523.781Z" fill="black"/>
<path d="M707.532 505.547L712.031 507.827C712.031 507.827 714.088 519.986 714.088 526.482C714.088 532.978 716.954 533.616 716.954 533.616C716.954 533.616 720.095 539.315 718.439 543.474C716.784 547.634 716.115 557.936 716.115 557.936C716.115 557.936 716.665 577.641 714.207 580.364C711.749 583.088 711.237 589.595 711.237 589.595C711.237 589.595 706.73 601.96 706.871 604.901C707.012 607.841 700.581 627.75 700.581 627.75C700.581 627.75 703.722 603.009 685.419 592.319C685.419 592.319 685.285 583.931 686.651 581.629C688.017 579.327 690.149 578.21 688.812 566.632C687.475 555.053 688.426 541.092 688.426 538.3C688.426 535.508 692.525 518.106 692.525 518.106L707.532 505.547Z" fill="white"/>
<path opacity="0.1" d="M608.12 919.086C608.12 919.086 615.293 912.169 620.001 917.195C624.708 922.221 608.12 919.086 608.12 919.086Z" fill="black"/>
<path opacity="0.1" d="M663.87 897.695C663.87 897.695 670.219 896.442 675.55 905.251C680.882 914.061 663.87 897.695 663.87 897.695Z" fill="black"/>
<g opacity="0.1">
<path opacity="0.1" d="M673.144 346.557C672.231 347.776 671.058 348.631 670.449 350.238C669.929 351.617 669.914 353.326 669.498 354.796C669.083 356.267 667.872 357.486 667.026 356.551C666.833 346.295 663.543 336.665 659.496 328.46C658.365 325.987 656.99 323.799 655.42 321.975C653.832 320.137 651.854 319.276 649.873 319.559C647.645 320.026 645.685 322.351 643.435 322.647C640.465 323.023 637.799 319.867 634.851 319.719C633.654 319.732 632.472 320.141 631.386 320.915C630.299 321.69 629.334 322.813 628.555 324.209C627.005 327.015 625.854 330.287 625.176 333.816C624.009 339.171 623.373 344.764 623.29 350.409C623.246 353.588 623.052 357.554 621.137 358.74C621.181 359.585 621.181 360.435 621.137 361.281C623.075 360.141 623.268 356.118 623.312 352.927C623.396 347.283 624.032 341.689 625.198 336.334C625.876 332.806 627.027 329.533 628.577 326.727C629.357 325.332 630.322 324.208 631.408 323.432C632.494 322.655 633.676 322.244 634.874 322.226C637.844 322.385 640.517 325.542 643.458 325.155C645.685 324.87 647.66 322.545 649.895 322.078C651.875 321.791 653.853 322.648 655.442 324.482C657.012 326.31 658.387 328.502 659.519 330.978C663.566 339.184 666.855 348.779 667.048 359.07C667.895 360.005 669.105 358.774 669.521 357.315C669.937 355.856 669.951 354.147 670.471 352.757C671.08 351.15 672.253 350.284 673.167 349.076C675.483 346.01 676.062 340.847 675.973 336.163C675.973 336.015 675.973 335.879 675.973 335.73C675.825 339.81 675.119 343.947 673.144 346.557Z" fill="black"/>
<path opacity="0.1" d="M618.323 345.759C616.622 342.876 614.291 340.938 612.724 337.884C611.401 335.188 610.647 331.935 610.563 328.562C610.33 332.78 611.097 336.985 612.724 340.403C614.291 343.457 616.622 345.383 618.323 348.266C619.965 351.085 620.952 354.66 621.129 358.432C621.241 356.138 621.05 353.834 620.568 351.656C620.085 349.479 619.322 347.473 618.323 345.759Z" fill="black"/>
<path opacity="0.1" d="M677.414 311.342C676.976 314.134 676.196 316.79 675.84 319.605C675.626 321.508 675.549 323.442 675.61 325.371C675.634 324.281 675.711 323.196 675.84 322.123C676.196 319.308 676.976 316.653 677.414 313.861C677.666 312.32 677.749 310.725 677.659 309.143C677.611 309.884 677.529 310.619 677.414 311.342Z" fill="black"/>
</g>
<path opacity="0.1" d="M71.3533 960.462C111.313 960.462 143.707 948.455 143.707 933.644C143.707 918.833 111.313 906.826 71.3533 906.826C31.3937 906.826 -1 918.833 -1 933.644C-1 948.455 31.3937 960.462 71.3533 960.462Z" fill="#56BC82"/>
<defs>
<linearGradient id="paint0_linear" x1="345.676" y1="952.877" x2="345.676" y2="294.567" gradientUnits="userSpaceOnUse">
<stop stop-color="#808080" stop-opacity="0.25"/>
<stop offset="0.54" stop-color="#808080" stop-opacity="0.12"/>
<stop offset="1" stop-color="#808080" stop-opacity="0.1"/>
</linearGradient>
<linearGradient id="paint1_linear" x1="141290" y1="616943" x2="141290" y2="185452" gradientUnits="userSpaceOnUse">
<stop stop-color="#808080" stop-opacity="0.25"/>
<stop offset="0.54" stop-color="#808080" stop-opacity="0.12"/>
<stop offset="1" stop-color="#808080" stop-opacity="0.1"/>
</linearGradient>
</defs>
</svg>
